<?xml version="1.0" encoding="UTF-8"?>
<!DOCTYPE svg PUBLIC "-//W3C//DTD SVG 1.1//EN" "http://www.w3.org/Graphics/SVG/1.1/DTD/svg11.dtd">
<!-- Creator: CorelDRAW 2017 -->
<svg xmlns="http://www.w3.org/2000/svg" xml:space="preserve" width="2742px" height="1718px" version="1.1" style="shape-rendering:geometricPrecision; text-rendering:geometricPrecision; image-rendering:optimizeQuality; fill-rule:evenodd; clip-rule:evenodd"
viewBox="0 0 2634.4 1651.12"
 xmlns:xlink="http://www.w3.org/1999/xlink">
 <defs>
  <style type="text/css">
   <![CDATA[
    .fil1 {fill:#0F355D}
    .fil0 {fill:#0F355D;fill-rule:nonzero}
   ]]>
  </style>
 </defs>
 <g id="Слой_x0020_1">
  <metadata id="CorelCorpID_0Corel-Layer"/>
  <path class="fil0" d="M1553.27 1266.81l-24.1 83.53 -26.84 -83.53 -33.69 0 46.84 130.09 -4.66 16.43c-3.56,12.05 -7.12,18.9 -17.25,18.9l-10.13 0 0 31.22 16.7 0c23.01,0 34.24,-19.17 41.36,-44.37l44.91 -152.27 -33.14 0zm104.66 0l0 56.42 -32.04 0 0 -56.42 -32.32 0 0 144.88 32.32 0 0 -58.61 32.04 0 0 58.61 32.32 0 0 -144.88 -32.32 0zm69.88 -22.46c10.68,0 18.9,-8.76 18.9,-18.89 0,-10.96 -8.22,-18.9 -18.9,-18.9 -10.95,0 -18.62,7.94 -18.62,18.9 0,10.68 7.67,18.89 18.62,18.89zm-16.16 167.34l32.32 0 0 -144.88 -32.32 0 0 144.88zm130.96 -76.68c9.58,-6.58 14.79,-16.71 14.79,-27.12 0,-26.02 -15.89,-41.08 -45.74,-41.08l-46.28 0 0 144.88 47.38 0c35.33,0 52.03,-16.16 52.03,-42.18 0,-14.51 -6.02,-28.21 -22.18,-34.5zm-46.29 -42.18l12.88 0c10.68,0 16.7,6.3 16.7,15.88 0,10.68 -6.02,16.16 -16.43,16.16l-13.15 0 0 -32.04zm18.08 92.29l-18.08 0 0 -33.96 18.08 0c12.87,0 18.62,5.48 18.62,16.98 0,11.23 -5.75,16.98 -18.62,16.98zm130.41 -19.17c-2.47,12.6 -7.4,18.08 -20.82,18.08 -12.05,0 -18.9,-7.67 -18.9,-24.92l0 -8.49 70.39 0 0 -32.32c0,-34.78 -19.45,-55.05 -51.76,-55.05 -31.77,0 -50.94,20.27 -50.94,55.05l0 40.81c0,35.05 19.17,55.87 50.66,55.87 31.77,0 51.22,-18.08 53.96,-49.03l-32.59 0zm-20.82 -72.57c12.6,0 19.45,7.67 19.45,24.65l0 9.58 -38.35 0 0 -9.58c0,-16.98 6.85,-24.65 18.9,-24.65zm124.93 -29.86c-12.33,0 -24.65,7.4 -31.77,16.44l-1.92 -13.42 -22.46 0 0 194.45 31.5 0 0 -55.33c6.57,6.03 15.34,9.59 24.65,9.59 27.93,0 46.56,-21.64 46.56,-56.42l0 -38.61c0,-34.79 -18.63,-56.7 -46.56,-56.7zm13.69 95.31c0,17.53 -6.57,25.75 -18.62,25.75 -12.6,0 -19.72,-9.32 -19.72,-25.75l0 -38.61c0,-17.26 7.67,-26.02 19.72,-26.02 11.78,0 18.62,8.49 18.62,26.02l0 38.61zm97.82 56.15c32.04,0 51.49,-20 52.31,-53.96l-32.59 0c-0.83,15.34 -6.85,23.01 -19.17,23.01 -11.78,0 -18.35,-7.67 -18.35,-23.01l0 -44.09c0,-15.06 6.57,-22.73 18.35,-22.73 11.5,0 17.8,7.67 18.34,22.73l32.6 0c-1.1,-33.69 -18.63,-53.68 -51.49,-53.68 -31.5,0 -50.39,19.99 -50.39,53.68l0 44.09c0,33.96 18.89,53.96 50.39,53.96zm65.22 -3.29l32.87 0 18.07 -39.44c6.57,-13.97 17.53,-48.75 18.9,-54.77l0.82 0.27c-1.09,16.16 -1.37,37.8 -1.37,51.22l0 42.72 30.95 0 0 -144.88 -32.59 0 -18.08 41.9c-5.75,15.34 -15.88,43.82 -18.35,51.76l-0.54 -0.27c0,-18.35 0.27,-32.32 0.27,-44.64l0 -48.75 -30.95 0 0 144.88zm204.08 -144.88l-95.03 0 0 30.67 31.49 0 0 114.21 32.32 0 0 -114.21 31.22 0 0 -30.67zm74.26 99.14c-2.46,12.6 -7.39,18.08 -20.81,18.08 -12.05,0 -18.9,-7.67 -18.9,-24.92l0 -8.49 70.39 0 0 -32.32c0,-34.78 -19.45,-55.05 -51.77,-55.05 -31.77,0 -50.94,20.27 -50.94,55.05l0 40.81c0,35.05 19.17,55.87 50.67,55.87 31.77,0 51.21,-18.08 53.95,-49.03l-32.59 0zm-20.81 -72.57c12.59,0 19.44,7.67 19.44,24.65l0 9.58 -38.34 0 0 -9.58c0,-16.98 6.85,-24.65 18.9,-24.65zm151.22 -26.57l-95.04 0 0 30.67 31.5 0 0 114.21 32.32 0 0 -114.21 31.22 0 0 -30.67z"/>
  <path class="fil0" d="M1469.37 1169.99l30.94 0 0 -32.32 70.66 0 0 32.32 30.95 0 0 -61.63 -16.71 0 0 -115.57 -89.28 0c-0.55,24.38 -1.92,48.75 -3.29,72.85 -1.09,16.16 -3.83,32.59 -12.05,42.72l-11.22 0 0 61.63zm48.2 -61.63c3.83,-10.4 5.75,-21.91 6.57,-34.78 1.37,-16.98 1.92,-33.96 2.19,-50.94l26.84 0 0 85.72 -35.6 0zm167.5 -16.43c-2.46,12.6 -7.39,18.08 -20.81,18.08 -12.05,0 -18.9,-7.67 -18.9,-24.92l0 -8.49 70.39 0 0 -32.32c0,-34.78 -19.45,-55.05 -51.76,-55.05 -31.77,0 -50.94,20.27 -50.94,55.05l0 40.81c0,35.05 19.17,55.87 50.66,55.87 31.77,0 51.22,-18.08 53.95,-49.03l-32.59 0zm-20.81 -72.57c12.6,0 19.44,7.67 19.44,24.65l0 9.58 -38.34 0 0 -9.58c0,-16.98 6.85,-24.65 18.9,-24.65zm129.98 -29.86c-12.32,0 -24.64,7.4 -31.76,16.44l-1.92 -13.42 -22.46 0 0 194.45 31.5 0 0 -55.33c6.57,6.03 15.33,9.59 24.64,9.59 27.94,0 46.56,-21.64 46.56,-56.42l0 -38.61c0,-34.79 -18.62,-56.7 -46.56,-56.7zm13.7 95.31c0,17.53 -6.58,25.75 -18.63,25.75 -12.59,0 -19.71,-9.32 -19.71,-25.75l0 -38.61c0,-17.26 7.66,-26.02 19.71,-26.02 11.78,0 18.63,8.49 18.63,26.02l0 38.61zm179.83 52.86l35.6 0 -47.38 -83.26 41.63 -61.62 -36.97 0 -18.08 31.5c-4.65,7.94 -9.58,16.98 -14.51,26.01l0 -57.51 -30.95 0 0 57.79c-4.93,-9.04 -9.86,-18.08 -14.52,-26.29l-18.07 -31.5 -36.97 0 41.62 61.62 -47.65 83.26 35.88 0 32.04 -58.34 7.67 8.22 0 50.12 30.95 0 0 -50.12 7.66 -8.22 32.05 58.34zm88.36 -148.44c-30.68,0 -49.58,17.8 -50.94,47.11l32.31 0c1.37,-11.23 9.04,-15.89 18.08,-15.89 12.05,0 16.43,8.49 16.43,23.28l0 7.12 -16.98 0c-31.77,0 -53.95,14.79 -53.95,45.46 0,26.57 16.98,45.19 43.54,45.19 16.43,0 26.57,-7.67 32.05,-17.52l1.91 13.69 26.02 0 0 -93.94c0,-35.33 -15.61,-54.5 -48.47,-54.5zm15.88 104.07c0,12.33 -7.67,19.99 -19.72,19.99 -12.32,0 -18.35,-7.12 -18.35,-16.98 0,-11.77 7.94,-18.07 21.64,-18.07l16.43 0 0 15.06zm136.01 -32.32c9.58,-6.57 14.79,-16.7 14.79,-27.11 0,-26.02 -15.89,-41.08 -45.74,-41.08l-46.28 0 0 144.88 47.38 0c35.33,0 52.03,-16.16 52.03,-42.18 0,-14.51 -6.02,-28.21 -22.18,-34.51zm-46.28 -42.17l12.87 0c10.68,0 16.7,6.3 16.7,15.88 0,10.68 -6.02,16.16 -16.43,16.16l-13.14 0 0 -32.04zm18.07 92.29l-18.07 0 0 -33.96 18.07 0c12.87,0 18.62,5.48 18.62,16.98 0,11.23 -5.75,16.98 -18.62,16.98zm131.08 -118.31l0 56.42 -32.04 0 0 -56.42 -32.32 0 0 144.88 32.32 0 0 -58.61 32.04 0 0 58.61 32.32 0 0 -144.88 -32.32 0zm58.78 144.88l32.86 0 18.08 -39.44c6.57,-13.97 17.53,-48.75 18.9,-54.77l0.82 0.27c-1.1,16.16 -1.37,37.8 -1.37,51.21l0 42.73 30.95 0 0 -144.88 -32.59 0 -18.08 41.9c-5.75,15.34 -15.88,43.82 -18.35,51.76l-0.55 -0.27c0,-18.35 0.28,-32.32 0.28,-44.64l0 -48.75 -30.95 0 0 144.88zm177.37 -167.34c18.89,0 32.86,-11.77 33.68,-33.41l-21.36 0c-0.27,8.22 -5.75,12.87 -12.6,12.87 -7.12,0 -12.32,-4.65 -12.6,-12.87l-21.63 0c0.82,21.09 15.06,33.41 34.51,33.41zm-50.67 167.34l32.86 0 18.08 -39.44c6.57,-13.97 17.53,-48.75 18.9,-54.77l0.82 0.27c-1.1,16.16 -1.37,37.8 -1.37,51.21l0 42.73 30.95 0 0 -144.88 -32.6 0 -18.07 41.9c-5.75,15.34 -15.89,43.82 -18.35,51.76l-0.55 -0.27c0,-18.35 0.28,-32.32 0.28,-44.64l0 -48.75 -30.95 0 0 144.88z"/>
  <path class="fil0" d="M1540.2 887.27c36.97,0 58.61,-21.37 59.98,-60.26l-33.69 0c-1.36,19.17 -9.58,27.67 -26.29,27.67 -14.24,0 -22.73,-9.04 -22.73,-28.21l0 -76.69c0,-19.72 8.49,-28.75 22.46,-28.75 16.43,0 24.65,8.49 25.74,28.2l33.69 0c-1.64,-39.16 -22.46,-60.79 -59.16,-60.79 -35.87,0 -57.51,21.63 -57.51,61.34l0 76.69c0,39.43 21.91,60.8 57.51,60.8zm141.81 -148.17l-24.1 83.53 -26.84 -83.53 -33.68 0 46.83 130.09 -4.66 16.43c-3.56,12.05 -7.12,18.9 -17.25,18.9l-10.13 0 0 31.22 16.7 0c23.01,0 34.24,-19.17 41.36,-44.37l44.91 -152.27 -33.14 0zm131.96 0l-18.08 44.64c-4.65,11.5 -8.76,22.46 -12.05,34.24l-0.82 0c-3.29,-11.78 -7.39,-22.74 -11.78,-34.24l-18.34 -44.64 -32.05 0 0 144.88 29.85 0 0 -44.92c0,-15.61 -1.09,-32.86 -1.91,-46.28l1.64 -0.55c4.11,13.97 7.94,27.39 11.5,38.07l7.12 18.9 29.03 0 7.12 -18.9c3.29,-10.68 7.4,-24.1 11.23,-38.07l1.65 0.55c-0.55,13.42 -1.65,30.67 -1.65,46.28l0 44.92 29.86 0 0 -144.88 -32.32 0zm99.09 148.17c32.04,0 51.49,-20 52.31,-53.96l-32.59 0c-0.83,15.34 -6.85,23.01 -19.17,23.01 -11.78,0 -18.35,-7.67 -18.35,-23.01l0 -44.09c0,-15.06 6.57,-22.73 18.35,-22.73 11.5,0 17.8,7.67 18.34,22.73l32.6 0c-1.1,-33.69 -18.63,-53.68 -51.49,-53.68 -31.5,0 -50.39,19.99 -50.39,53.68l0 44.09c0,33.96 18.89,53.96 50.39,53.96zm116.61 -100.24l-20.54 0 0 -47.93 -32.31 0 0 144.88 52.85 0c28.21,0 47.93,-19.72 47.93,-49.02 0,-28.76 -19.72,-47.93 -47.93,-47.93zm-4.1 67.92l-16.44 0 0 -39.16 16.44 0c12.05,0 19.44,6.84 19.44,19.17 0,12.59 -7.39,19.99 -19.44,19.99zm133.59 29.03l36.7 0 -48.75 -83.53 41.9 -61.35 -37.79 0 -19.17 32.59c-4.38,7.67 -9.31,16.43 -14.24,25.47l0 -58.06 -32.05 0 0 144.88 32.05 0 0 -49.57 7.94 -8.49 33.41 58.06zm40.48 0l32.87 0 18.07 -39.44c6.58,-13.97 17.53,-48.75 18.9,-54.77l0.82 0.27c-1.09,16.16 -1.37,37.8 -1.37,51.21l0 42.73 30.95 0 0 -144.88 -32.59 0 -18.08 41.9c-5.75,15.34 -15.88,43.82 -18.35,51.76l-0.54 -0.27c0,-18.35 0.27,-32.32 0.27,-44.64l0 -48.75 -30.95 0 0 144.88zm170.85 -167.34c18.89,0 32.86,-11.77 33.68,-33.41l-21.36 0c-0.27,8.22 -5.75,12.87 -12.6,12.87 -7.12,0 -12.32,-4.65 -12.6,-12.87l-21.63 0c0.82,21.09 15.06,33.41 34.51,33.41zm-50.67 167.34l32.86 0 18.08 -39.44c6.57,-13.97 17.53,-48.75 18.9,-54.77l0.82 0.27c-1.1,16.16 -1.37,37.8 -1.37,51.21l0 42.73 30.95 0 0 -144.88 -32.6 0 -18.07 41.9c-5.75,15.34 -15.88,43.82 -18.35,51.76l-0.55 -0.27c0,-18.35 0.28,-32.32 0.28,-44.64l0 -48.75 -30.95 0 0 144.88z"/>
  <g id="_2350911512864">
   <path class="fil1" d="M958.39 762.73c47.23,-15.61 98.36,-29.88 139.16,-39.7l-0.15 -65.87c-63.67,11.16 -135.81,28.19 -211.37,51.35 29.12,16.03 52.12,33.59 72.36,54.22z"/>
   <path class="fil1" d="M379.54 1004.09c15.86,-8.32 35.59,-18.18 51.59,-24.73 0.28,-30.36 4.25,-59.06 13.1,-88.59 -21.04,10.9 -44.88,23.42 -64.69,34.48l0 78.84z"/>
   <path class="fil1" d="M652.69 1239.67l13.63 21.68c-12.86,-3.31 -22.95,-7.91 -35.21,-12.96 -85.88,30.64 -167.37,55.91 -241.94,75.7 -0.25,9.99 6.58,26.37 9.1,32.21 6.22,14.39 16.67,36.01 25.18,48.6l14.85 22.05c15.75,21.25 42.17,49.06 63.95,65.16 21.29,15.75 30.19,23.16 55.19,38.26 28.52,17.21 72.03,34.32 105.25,42.3 58.35,14.02 127.41,10.74 182.41,-9.93 42.53,-15.97 57.1,-26.11 92.04,-53.05 8.61,-6.64 28.93,-26.42 36.21,-35.12 0.16,-0.19 0.39,-0.47 0.56,-0.67l31.38 -39.94c8.42,-11.59 14.85,-22.94 22.31,-35.48l10.36 -19.16c11.29,-22.7 16.97,-34.41 26.53,-59.55 9.87,-25.98 21.12,-61.32 27.05,-88.55 7.1,-32.64 13.12,-62.78 16.61,-98.99 4.47,-46.31 4.2,-69.88 4.2,-115.91 -29.47,18.44 -60.74,36.88 -94.15,54.7 -14.38,42.37 -37.81,79.02 -68.6,110.24l-5.6 -73.64 -8.41 5.66 5.87 76.97c-52.41,49.4 -123,79.75 -200.68,79.75 -21.3,0 -42.08,-2.28 -62.19,-6.71l-16.68 -26.5 -9.22 2.88zm-514.92 -152.9l4.28 63.12c-75.32,55.66 -114.3,101.71 -102.48,128.68 28.78,65.72 348.26,-6.79 713.56,-161.95 365.3,-155.15 638.1,-334.21 609.32,-399.93 -11,-25.1 -64.41,-30.04 -146.73,-18.31l-0.14 -55.3c97.49,-4.92 163.66,12.31 181.61,54.1 25.68,59.77 -52.88,156.87 -196.51,260.07l-0.43 92.47c0.04,15.03 -1.07,43.74 -3.16,58.33 -1.36,9.55 -1.34,19.8 -2.6,28.14 -8.88,58.63 -14.9,96.45 -33.43,152.27 -19.45,58.57 -48.57,112.83 -84.79,162.38 -8.66,11.84 -18.85,22.18 -27.77,33.73l-11.22 12.14c-5.83,6.97 -12.85,12.56 -19.33,18.79 -13.29,12.8 -26.91,24.75 -41.63,35.83 -3.05,2.3 -5.56,3.86 -8.63,6.13 -3.4,2.52 -5.83,4.14 -9.42,6.57 -3.44,2.33 -5.04,3.95 -8.58,6.17l-54.18 30.66c-69.03,35.37 -139.99,49.67 -233.99,50.26l-3.06 0c-5.45,-0.08 -8.45,-0.56 -12.89,-1.05 -4.8,-0.54 -9.7,0.14 -14.51,-0.25 -60.6,-4.93 -115.34,-21.46 -170.1,-45.08 -27.9,-12.03 -53.9,-28.18 -77.99,-46.2 -6.17,-4.62 -11.64,-8.77 -17.55,-13.19 -20.49,-15.33 -41.04,-31.99 -58.53,-50.91 -17.05,-18.43 -33.48,-37.39 -46.69,-59.07 -4.27,-7 -7.91,-11.9 -11.98,-18.76 -11.71,-19.72 -28.22,-47.74 -38.54,-67 -109.98,10.05 -185.49,-6.45 -204.86,-51.52 -21.58,-50.25 30.49,-126.87 132.95,-211.32z"/>
   <path class="fil1" d="M35 420.49c96.78,8.05 114.94,32.01 114.93,127.45l0 408.71c0,85.9 2.96,166.2 10.06,227.23 3.52,30.32 13.97,65.28 26.53,95.24 67.75,-9.97 126.19,-23.57 180.6,-41.96 -2.9,-11.36 -3.03,-15.21 -3.03,-28.86 0,-176.95 1.33,-449.81 1.33,-635.77 0,-165.57 72.13,-150.33 90.5,-152.04l0 -54.57 -420.01 0 -0.91 54.57z"/>
   <path class="fil1" d="M1002.3 417.57c0,5.84 8.1,3.24 14.42,4.03 36.02,4.49 65.36,14.63 85.12,48.91 10.9,18.9 11.12,35.97 11.12,65.13l0.93 387.99c19.77,-11.4 72.37,-42.29 87.29,-54.11 0,-114.28 0.3,-234.27 0.3,-348.64 0,-26.03 2.99,-39.33 13.75,-55.13 13.62,-19.99 38.17,-35.31 61.47,-41.82l30.52 -3.9 0.04 -43.09c0.09,-5.47 1.46,-11.02 -3.73,-11.02l-301.23 0 0 51.65z"/>
   <path class="fil1" d="M773.58 125.44c19.14,-18.89 20.9,-33.33 20.9,-54.11 0,-5.86 -2.48,-9.56 -3.69,-14.76 -32.2,43.55 -116.01,11.58 -164.07,60.95 -60.03,61.08 10.98,125.23 55.1,134.57 8.52,-87.4 130.89,-41.49 131.13,-78.89 21.79,16.05 3.99,54.68 -12.32,75.23 156.02,-16.16 109.97,-212.98 172.13,-248.43 -80.72,0 -134.33,125.44 -199.18,125.44z"/>
   <path class="fil1" d="M550.75 321.3c24.49,0 29.19,-6.43 53.9,32.84 14.28,19.75 22.41,46.21 47.24,46.21l174.59 0c15.15,0 31.11,-28.94 41.55,-44.53 21.05,-31.46 23.23,-34.18 54.97,-34.18l-0.63 -51.65 -371.3 0c0,12.58 -0.32,38.56 -0.32,51.31z"/>
   <path class="fil1" d="M795.37 676.76l19.67 -249.35 -147.16 0 19.67 248.43c36.08,-5.34 70.82,-4.42 107.82,0.92z"/>
   <path class="fil1" d="M740.54 1454.4l-5.04 -0.06c-7.51,0 -14.74,-6.05 -15.87,-12.41l-13.01 -156.11c23.58,2.45 45.25,2.98 67.61,-0.08l-12.77 156.19c-0.76,6.21 -8.37,12.41 -15.88,12.41l-5.04 0.06z"/>
   <path class="fil1" d="M903.06 1034l-43.05 -20.35c-1.33,-0.61 -2.61,-1.4 -3.93,-2.02 -1.59,-0.74 -3.03,-1.25 -4.57,-2.04 -17.57,-9.04 -40.84,-19.24 -59.15,-28.14l-26.14 -12.39c-4.46,5.29 -11.24,9.66 -21.77,7.32l-88.67 164.81c84.53,-33.27 167.63,-69.52 247.28,-107.19z"/>
   <path class="fil1" d="M560.08 845.22c3.03,1.82 7.12,6.34 8,10.41l239.7 -43.26c0.18,-13.38 13.11,-22.73 26.34,-19.01l40.58 -75.85c-78.04,-37.93 -171.52,-45.07 -252.02,-7.9l-62.6 135.61z"/>
   <path class="fil1" d="M928.82 1021.62l-17.36 -220.05 -63.03 11.32c-0.26,15.96 -13.46,22.39 -26.61,19.52l-58.32 108.87c6.99,5.83 7.29,13.34 6.19,20.82l142.94 67.35c5.43,-2.62 10.86,-5.23 16.19,-7.83z"/>
   <path class="fil1" d="M936.56 1017.84l-17.14 -217.45 46.76 -8.44c37.41,46.99 64.54,107.33 65.92,177.95 -30.97,16.19 -63.1,32.22 -95.54,47.94z"/>
   <path class="fil1" d="M605.54 1161.15l-111.4 -177.34 -35.22 75.63c14.33,53.65 56.75,110.79 76.5,127.72 23.51,-8.51 46.86,-17.19 70.12,-26.01z"/>
   <path class="fil1" d="M569.05 863.67l-0.39 2.63 165.2 78.27c2.64,-3.79 10.94,-11.13 22.33,-7.28l58.39 -109.01c-1.58,-1.49 -4.53,-4.61 -5.47,-8.04l-240.06 43.43z"/>
   <path class="fil1" d="M487.63 827.51l45.22 21.84c3.57,-4.18 9.54,-8.4 19.91,-7.46l59.01 -128.01c-53.62,26.44 -93.79,62.21 -124.14,113.63z"/>
   <path class="fil1" d="M461.74 882.95c-1.35,3.93 -5.36,17.5 -6.3,23.56l38.45 61.27 41.85 -89.95c-1.91,-1.61 -4.17,-4.13 -5.29,-6.9l-68.71 12.02z"/>
   <path class="fil1" d="M841.18 797.14c2.12,1.94 5.02,5.1 5.72,7.98l64.03 -11.44 -4.47 -57.15c-4.53,-3.14 -18.07,-12.73 -24.69,-15.7l-40.59 76.31z"/>
   <path class="fil1" d="M455.08 1049.11l34.05 -71.83 -36.52 -58.99c-10.92,51.72 -3.07,105.03 2.47,130.82z"/>
   <path class="fil1" d="M465.03 874.22l63.48 -10.57c-0.35,-1.99 -0.04,-5.38 0.87,-7.75l-45.81 -21.22c-5.8,9.37 -13.33,26.33 -18.54,39.54z"/>
   <path class="fil1" d="M918.85 791.84l41.05 -6.94c-5.17,-6.93 -37.66,-38.33 -45.13,-42.22l4.08 49.16z"/>
   <path class="fil1" d="M643.83 1146.22c-10.13,4 -20.61,7.99 -30.77,11.93l-114.27 -181.83 42.52 -95.3c6.45,2.76 20.02,1.16 24.46,-7.54l164.4 78.26c-2.27,10.61 2.24,17.18 6.89,21.07l-93.23 173.41z"/>
  </g>
 </g>
</svg>
